<svg width="40" height="18" viewBox="0 0 40 18" fill="#none" xmlns="http://www.w3.org/2000/svg">
<path d="M2.04061 17C1.73261 17 1.46861 16.8973 1.24861 16.692C1.04328 16.472 0.940609 16.2007 0.940609 15.878V1.842C0.940609 1.51933 1.04328 1.25533 1.24861 1.05C1.46861 0.83 1.73261 0.72 2.04061 0.72C2.36328 0.72 2.62728 0.83 2.83261 1.05C3.03794 1.25533 3.14061 1.51933 3.14061 1.842V15.878C3.14061 16.2007 3.03794 16.472 2.83261 16.692C2.62728 16.8973 2.36328 17 2.04061 17ZM9.21261 5.384C9.49128 5.384 9.73328 5.50133 9.93861 5.736C10.1439 5.97067 10.2466 6.20533 10.2466 6.44C10.2466 6.73333 10.1073 7.00467 9.82861 7.254L2.94261 13.414L2.85461 10.884L8.39861 5.736C8.63328 5.50133 8.90461 5.384 9.21261 5.384ZM9.47661 16.978C9.16861 16.978 8.90461 16.8533 8.68461 16.604L4.28461 11.962L5.95661 10.422L10.2466 15.064C10.4813 15.3133 10.5986 15.592 10.5986 15.9C10.5986 16.2227 10.4666 16.4867 10.2026 16.692C9.95328 16.8827 9.71128 16.978 9.47661 16.978ZM17.928 17.22C16.7107 17.22 15.6547 16.9707 14.76 16.472C13.8654 15.9587 13.1687 15.262 12.67 14.382C12.186 13.4873 11.944 12.468 11.944 11.324C11.944 10.0333 12.2007 8.93333 12.714 8.024C13.242 7.1 13.924 6.396 14.76 5.912C15.596 5.41333 16.4834 5.164 17.422 5.164C18.1407 5.164 18.8227 5.31067 19.468 5.604C20.1134 5.88267 20.6854 6.27867 21.184 6.792C21.6974 7.29067 22.1007 7.88467 22.394 8.574C22.6874 9.24867 22.8414 9.98933 22.856 10.796C22.8414 11.0893 22.724 11.3313 22.504 11.522C22.284 11.7127 22.0274 11.808 21.734 11.808H13.176L12.648 9.938H20.92L20.502 10.334V9.784C20.4727 9.27067 20.304 8.82333 19.996 8.442C19.688 8.046 19.3067 7.74533 18.852 7.54C18.3974 7.32 17.9207 7.21 17.422 7.21C16.982 7.21 16.5567 7.28333 16.146 7.43C15.75 7.562 15.3907 7.782 15.068 8.09C14.76 8.398 14.5107 8.80867 14.32 9.322C14.144 9.82067 14.056 10.444 14.056 11.192C14.056 11.9987 14.2247 12.7027 14.562 13.304C14.8994 13.9053 15.354 14.3747 15.926 14.712C16.498 15.0347 17.1287 15.196 17.818 15.196C18.3607 15.196 18.808 15.1447 19.16 15.042C19.512 14.9247 19.8054 14.7853 20.04 14.624C20.2747 14.4627 20.48 14.3087 20.656 14.162C20.876 14.03 21.096 13.964 21.316 13.964C21.58 13.964 21.8 14.0593 21.976 14.25C22.152 14.426 22.24 14.6387 22.24 14.888C22.24 15.2107 22.0787 15.504 21.756 15.768C21.36 16.1493 20.81 16.4867 20.106 16.78C19.4167 17.0733 18.6907 17.22 17.928 17.22ZM25.4993 5.318C25.7193 5.318 25.9246 5.37667 26.1153 5.494C26.3206 5.61133 26.4673 5.78733 26.5553 6.022L30.0093 14.008L29.5913 14.206L33.0893 6.044C33.2946 5.56 33.6246 5.32533 34.0793 5.34C34.3726 5.34 34.6146 5.43533 34.8053 5.626C35.0106 5.802 35.1133 6.03667 35.1133 6.33C35.1133 6.418 35.0986 6.51333 35.0693 6.616C35.04 6.704 35.0033 6.792 34.9593 6.88L30.7793 16.296C30.5886 16.736 30.2733 16.9707 29.8333 17C29.6133 17.0293 29.3933 16.9853 29.1733 16.868C28.968 16.736 28.8066 16.5453 28.6893 16.296L24.5313 6.88C24.502 6.82133 24.4726 6.748 24.4433 6.66C24.414 6.55733 24.3993 6.44 24.3993 6.308C24.3993 6.088 24.4946 5.868 24.6853 5.648C24.8906 5.428 25.162 5.318 25.4993 5.318ZM38.1885 16.978C37.8218 16.978 37.5358 16.8753 37.3305 16.67C37.1398 16.4647 37.0445 16.1787 37.0445 15.812V15.416C37.0445 15.0493 37.1398 14.7633 37.3305 14.558C37.5358 14.3527 37.8218 14.25 38.1885 14.25H38.4305C38.7972 14.25 39.0758 14.3527 39.2665 14.558C39.4572 14.7633 39.5525 15.0493 39.5525 15.416V15.812C39.5525 16.1787 39.4572 16.4647 39.2665 16.67C39.0758 16.8753 38.7972 16.978 38.4305 16.978H38.1885Z" fill="#BFBFBF"/>
</svg>
