<svg width="24" height="24" viewBox="0 0 24 24" fill="none" xmlns="http://www.w3.org/2000/svg">
<circle cx="12" cy="12" r="10.25" stroke="#292D32" stroke-width="1.5"/>
<path d="M5.74574 17V8.81818H8.68608V17H5.74574ZM7.21591 7.96591C6.81818 7.96591 6.47727 7.83452 6.19318 7.57173C5.90909 7.30895 5.76705 6.9929 5.76705 6.62358C5.76705 6.25426 5.90909 5.93821 6.19318 5.67543C6.47727 5.41264 6.81818 5.28125 7.21591 5.28125C7.61719 5.28125 7.9581 5.41264 8.23864 5.67543C8.52273 5.93821 8.66477 6.25426 8.66477 6.62358C8.66477 6.9929 8.52273 7.30895 8.23864 7.57173C7.9581 7.83452 7.61719 7.96591 7.21591 7.96591ZM13.1246 12.3977V17H10.1842V8.81818H12.9754V10.3736H13.0606C13.2382 9.85511 13.5507 9.44851 13.9981 9.15376C14.4491 8.85902 14.9747 8.71165 15.5748 8.71165C16.1537 8.71165 16.6562 8.84482 17.0823 9.11115C17.512 9.37393 17.844 9.73615 18.0784 10.1978C18.3163 10.6594 18.4335 11.1868 18.43 11.7798V17H15.4896V12.3977C15.4932 11.9929 15.3902 11.6751 15.1807 11.4442C14.9747 11.2134 14.6871 11.098 14.3177 11.098C14.0763 11.098 13.865 11.1513 13.6839 11.2578C13.5063 11.3608 13.3696 11.5099 13.2737 11.7053C13.1778 11.897 13.1281 12.1278 13.1246 12.3977Z" fill="#292D32"/>
</svg>
