<svg width="62" height="44" viewBox="0 0 62 44" fill="none" xmlns="http://www.w3.org/2000/svg">
<path d="M13.0406 30C12.7326 30 12.4686 29.8973 12.2486 29.692C12.0433 29.472 11.9406 29.2007 11.9406 28.878V14.842C11.9406 14.5193 12.0433 14.2553 12.2486 14.05C12.4686 13.83 12.7326 13.72 13.0406 13.72C13.3633 13.72 13.6273 13.83 13.8326 14.05C14.0379 14.2553 14.1406 14.5193 14.1406 14.842V28.878C14.1406 29.2007 14.0379 29.472 13.8326 29.692C13.6273 29.8973 13.3633 30 13.0406 30ZM20.2126 18.384C20.4913 18.384 20.7333 18.5013 20.9386 18.736C21.1439 18.9707 21.2466 19.2053 21.2466 19.44C21.2466 19.7333 21.1073 20.0047 20.8286 20.254L13.9426 26.414L13.8546 23.884L19.3986 18.736C19.6333 18.5013 19.9046 18.384 20.2126 18.384ZM20.4766 29.978C20.1686 29.978 19.9046 29.8533 19.6846 29.604L15.2846 24.962L16.9566 23.422L21.2466 28.064C21.4813 28.3133 21.5986 28.592 21.5986 28.9C21.5986 29.2227 21.4666 29.4867 21.2026 29.692C20.9533 29.8827 20.7113 29.978 20.4766 29.978ZM28.928 30.22C27.7107 30.22 26.6547 29.9707 25.76 29.472C24.8654 28.9587 24.1687 28.262 23.67 27.382C23.186 26.4873 22.944 25.468 22.944 24.324C22.944 23.0333 23.2007 21.9333 23.714 21.024C24.242 20.1 24.924 19.396 25.76 18.912C26.596 18.4133 27.4834 18.164 28.422 18.164C29.1407 18.164 29.8227 18.3107 30.468 18.604C31.1134 18.8827 31.6854 19.2787 32.184 19.792C32.6974 20.2907 33.1007 20.8847 33.394 21.574C33.6874 22.2487 33.8414 22.9893 33.856 23.796C33.8414 24.0893 33.724 24.3313 33.504 24.522C33.284 24.7127 33.0274 24.808 32.734 24.808H24.176L23.648 22.938H31.92L31.502 23.334V22.784C31.4727 22.2707 31.304 21.8233 30.996 21.442C30.688 21.046 30.3067 20.7453 29.852 20.54C29.3974 20.32 28.9207 20.21 28.422 20.21C27.982 20.21 27.5567 20.2833 27.146 20.43C26.75 20.562 26.3907 20.782 26.068 21.09C25.76 21.398 25.5107 21.8087 25.32 22.322C25.144 22.8207 25.056 23.444 25.056 24.192C25.056 24.9987 25.2247 25.7027 25.562 26.304C25.8994 26.9053 26.354 27.3747 26.926 27.712C27.498 28.0347 28.1287 28.196 28.818 28.196C29.3607 28.196 29.808 28.1447 30.16 28.042C30.512 27.9247 30.8054 27.7853 31.04 27.624C31.2747 27.4627 31.48 27.3087 31.656 27.162C31.876 27.03 32.096 26.964 32.316 26.964C32.58 26.964 32.8 27.0593 32.976 27.25C33.152 27.426 33.24 27.6387 33.24 27.888C33.24 28.2107 33.0787 28.504 32.756 28.768C32.36 29.1493 31.81 29.4867 31.106 29.78C30.4167 30.0733 29.6907 30.22 28.928 30.22ZM36.4993 18.318C36.7193 18.318 36.9246 18.3767 37.1153 18.494C37.3206 18.6113 37.4673 18.7873 37.5553 19.022L41.0093 27.008L40.5913 27.206L44.0893 19.044C44.2946 18.56 44.6246 18.3253 45.0793 18.34C45.3726 18.34 45.6146 18.4353 45.8053 18.626C46.0106 18.802 46.1133 19.0367 46.1133 19.33C46.1133 19.418 46.0986 19.5133 46.0693 19.616C46.04 19.704 46.0033 19.792 45.9593 19.88L41.7793 29.296C41.5886 29.736 41.2733 29.9707 40.8333 30C40.6133 30.0293 40.3933 29.9853 40.1733 29.868C39.968 29.736 39.8066 29.5453 39.6893 29.296L35.5313 19.88C35.502 19.8213 35.4726 19.748 35.4433 19.66C35.414 19.5573 35.3993 19.44 35.3993 19.308C35.3993 19.088 35.4946 18.868 35.6853 18.648C35.8906 18.428 36.162 18.318 36.4993 18.318ZM49.1885 29.978C48.8218 29.978 48.5358 29.8753 48.3305 29.67C48.1398 29.4647 48.0445 29.1787 48.0445 28.812V28.416C48.0445 28.0493 48.1398 27.7633 48.3305 27.558C48.5358 27.3527 48.8218 27.25 49.1885 27.25H49.4305C49.7972 27.25 50.0758 27.3527 50.2665 27.558C50.4572 27.7633 50.5525 28.0493 50.5525 28.416V28.812C50.5525 29.1787 50.4572 29.4647 50.2665 29.67C50.0758 29.8753 49.7972 29.978 49.4305 29.978H49.1885Z" fill="#B9B9B9"/>
</svg>
